<?xml version="1.0" ?><!DOCTYPE svg  PUBLIC '-//W3C//DTD SVG 1.1//EN'  'http://www.w3.org/Graphics/SVG/1.1/DTD/svg11.dtd'><svg height="100%" style="fill-rule:evenodd;clip-rule:evenodd;stroke-linejoin:round;stroke-miterlimit:2;" version="1.1" viewBox="0 0 512 512" width="100%" xml:space="preserve" xmlns="http://www.w3.org/2000/svg" xmlns:serif="http://www.serif.com/" xmlns:xlink="http://www.w3.org/1999/xlink"><g transform="matrix(1.04839,0,0,1.06716,-11.3548,-15.2836)"><ellipse cx="255.015" cy="254.21" rx="244.185" ry="239.888" style="fill:rgb(137,216,255);"/><path d="M255.015,14.322C389.785,14.322 499.2,121.812 499.2,254.21C499.2,386.608 389.785,494.098 255.015,494.098C120.246,494.098 10.831,386.608 10.831,254.21C10.831,121.812 120.246,14.322 255.015,14.322ZM255.015,21.818C385.573,21.818 491.569,125.949 491.569,254.21C491.569,382.47 385.573,486.601 255.015,486.601C124.458,486.601 18.462,382.47 18.462,254.21C18.462,125.949 124.458,21.818 255.015,21.818Z" style="fill:white;"/></g><g transform="matrix(1.765,0,0,1.765,-272.014,-69.27)"><circle cx="298.892" cy="184.554" r="36.827" style="fill:white;"/></g><g transform="matrix(1,0,0,1,-0.512004,5.68434e-14)"><path d="M420.352,180.634C420.352,131.804 380.708,92.16 331.878,92.16L181.146,92.16C132.316,92.16 92.672,131.804 92.672,180.634L92.672,331.366C92.672,380.196 132.316,419.84 181.146,419.84L331.878,419.84C380.708,419.84 420.352,380.196 420.352,331.366L420.352,180.634ZM256.044,178.468C299.093,178.468 334.044,213.419 334.044,256.468C334.044,299.517 299.093,334.468 256.044,334.468C212.995,334.468 178.044,299.517 178.044,256.468C178.044,213.419 212.995,178.468 256.044,178.468ZM346.655,155.701C352.856,155.701 357.89,160.735 357.89,166.936C357.89,173.136 352.856,178.17 346.655,178.17C340.455,178.17 335.421,173.136 335.421,166.936C335.421,160.735 340.455,155.701 346.655,155.701Z" style="fill:white;"/><path d="M420.352,180.634C420.352,131.804 380.708,92.16 331.878,92.16L181.146,92.16C132.316,92.16 92.672,131.804 92.672,180.634L92.672,331.366C92.672,380.196 132.316,419.84 181.146,419.84L331.878,419.84C380.708,419.84 420.352,380.196 420.352,331.366L420.352,180.634ZM410.112,180.634L410.112,331.366C410.112,374.545 375.057,409.6 331.878,409.6C331.878,409.6 181.146,409.6 181.146,409.6C137.967,409.6 102.912,374.545 102.912,331.366L102.912,180.634C102.912,137.455 137.967,102.4 181.146,102.4L331.878,102.4C375.057,102.4 410.112,137.455 410.112,180.634ZM256.044,168.228C207.343,168.228 167.804,207.767 167.804,256.468C167.804,305.169 207.343,344.708 256.044,344.708C304.745,344.708 344.284,305.169 344.284,256.468C344.284,207.767 304.745,168.228 256.044,168.228ZM256.044,178.468C299.093,178.468 334.044,213.419 334.044,256.468C334.044,299.517 299.093,334.468 256.044,334.468C212.995,334.468 178.044,299.517 178.044,256.468C178.044,213.419 212.995,178.468 256.044,178.468ZM346.655,145.461C334.803,145.461 325.181,155.083 325.181,166.936C325.181,178.788 334.803,188.41 346.655,188.41C358.507,188.41 368.13,178.788 368.13,166.936C368.13,155.083 358.507,145.461 346.655,145.461ZM346.655,155.701C352.856,155.701 357.89,160.735 357.89,166.936C357.89,173.136 352.856,178.17 346.655,178.17C340.455,178.17 335.421,173.136 335.421,166.936C335.421,160.735 340.455,155.701 346.655,155.701Z" style="fill:white;"/></g></svg>